<svg width="80" height="80" viewBox="0 0 80 80" fill="none" xmlns="http://www.w3.org/2000/svg">
<path d="M1.66667 55V4.99996C1.66667 4.1159 2.01786 3.26806 2.64298 2.64294C3.2681 2.01782 4.11595 1.66663 5 1.66663H75C75.8841 1.66663 76.7319 2.01782 77.357 2.64294C77.9822 3.26806 78.3333 4.1159 78.3333 4.99996V55H1.66667Z" fill="#F5F5F5"/>
<path d="M68.3333 1.66663H5C4.11595 1.66663 3.2681 2.01782 2.64298 2.64294C2.01786 3.26806 1.66667 4.1159 1.66667 4.99996V55H15L68.3333 1.66663Z" fill="#F5F5F5"/>
<path d="M78.3333 61.6667C78.3333 62.5507 77.9822 63.3986 77.357 64.0237C76.7319 64.6488 75.8841 65 75 65H5C4.11595 65 3.2681 64.6488 2.64298 64.0237C2.01786 63.3986 1.66667 62.5507 1.66667 61.6667V55H78.3333V61.6667Z" fill="#F5F5F5"/>
<path d="M49.54 78.3333C46.7777 74.4171 45.2016 69.7882 45 65H35C34.7984 69.7882 33.2223 74.4171 30.46 78.3333H49.54Z" fill="#F5F5F5" stroke="#07153A" stroke-width="2" stroke-linecap="round" stroke-linejoin="round"/>
<path d="M25 78.3333H55" stroke="#07153A" stroke-width="2" stroke-linecap="round" stroke-linejoin="round"/>
<path d="M1.66667 55H78.3333" stroke="#07153A" stroke-width="2" stroke-linecap="round" stroke-linejoin="round"/>
<path d="M75 1.66663H5C3.15905 1.66663 1.66667 3.15901 1.66667 4.99996V61.6666C1.66667 63.5076 3.15905 65 5 65H75C76.841 65 78.3333 63.5076 78.3333 61.6666V4.99996C78.3333 3.15901 76.841 1.66663 75 1.66663Z" stroke="#07153A" stroke-width="2" stroke-linecap="round" stroke-linejoin="round"/>
<path d="M40 45C48.2843 45 55 38.2843 55 30C55 21.7157 48.2843 15 40 15C31.7157 15 25 21.7157 25 30C25 38.2843 31.7157 45 40 45Z" fill="#F5F5F5"/>
<path d="M29.3933 40.6066C26.5803 37.7936 24.9999 33.9782 24.9999 30C24.9999 26.0217 26.5803 22.2064 29.3933 19.3933C32.2064 16.5802 36.0217 14.9999 40 14.9999C43.9783 14.9999 47.7936 16.5802 50.6067 19.3933L29.3933 40.6066Z" fill="#F5F5F5"/>
<path d="M56.6667 18.3333L40 34.9999L33.3333 28.3333" stroke="#07153A" stroke-width="2" stroke-linecap="round" stroke-linejoin="round"/>
<path d="M55 30C54.9994 33.2614 53.9358 36.4338 51.9704 39.0365C50.0049 41.6392 47.2448 43.5304 44.1081 44.4236C40.9713 45.3168 37.6289 45.1633 34.5873 43.9864C31.5456 42.8096 28.9703 40.6734 27.2517 37.9015C25.533 35.1297 24.7646 31.8732 25.0628 28.6255C25.3611 25.3777 26.7097 22.3156 28.9044 19.9031C31.0991 17.4906 34.0203 15.8592 37.2255 15.2559C40.4306 14.6527 43.7451 15.1105 46.6667 16.56" stroke="#07153A" stroke-width="2" stroke-linecap="round" stroke-linejoin="round"/>
</svg>
