<svg width="80" height="80" viewBox="0 0 80 80" fill="none" xmlns="http://www.w3.org/2000/svg">
<path d="M58.33 1.66943H4.99666C3.15571 1.66943 1.66333 3.16182 1.66333 5.00277V55.0027C1.66333 56.8437 3.15571 58.3361 4.99666 58.3361H58.33C60.1709 58.3361 61.6633 56.8437 61.6633 55.0027V5.00277C61.6633 3.16182 60.1709 1.66943 58.33 1.66943Z" fill="#F5F5F5"/>
<path d="M58.3328 1.66663H4.99947C4.11542 1.66663 3.26757 2.01782 2.64245 2.64294C2.01733 3.26806 1.66614 4.1159 1.66614 4.99996V15C1.66614 14.1159 2.01733 13.2681 2.64245 12.6429C3.26757 12.0178 4.11542 11.6666 4.99947 11.6666H58.3328C59.2169 11.6666 60.0647 12.0178 60.6898 12.6429C61.315 13.2681 61.6661 14.1159 61.6661 15V4.99996C61.6661 4.1159 61.315 3.26806 60.6898 2.64294C60.0647 2.01782 59.2169 1.66663 58.3328 1.66663Z" fill="#F5F5F5"/>
<path d="M75 53.3333V54.1C61.8627 50.8666 48.1373 50.8666 35 54.1V53.3333L37.9333 38.6333C38.0489 38.0413 38.3243 37.4922 38.7298 37.0456C39.1352 36.5991 39.6552 36.272 40.2333 36.1L54.0333 31.9666C54.6623 31.7667 55.3377 31.7667 55.9667 31.9666L69.7333 36.1C70.3161 36.2698 70.8413 36.5955 71.2525 37.0419C71.6637 37.4884 71.9452 38.0386 72.0667 38.6333L75 53.3333Z" fill="#F5F5F5"/>
<path d="M72.07 38.63C71.9486 38.0353 71.6671 37.4851 71.2559 37.0386C70.8447 36.5922 70.3194 36.2665 69.7367 36.0967L55.97 31.9633C55.3411 31.7634 54.6656 31.7634 54.0367 31.9633L40.2366 36.0967C39.6585 36.2687 39.1385 36.5958 38.7331 37.0423C38.3276 37.4889 38.0522 38.038 37.9366 38.63L36.9366 43.65C42.4253 46.8113 48.6667 48.4295 55 48.3333C61.3398 48.4274 67.5866 46.802 73.0767 43.63L72.07 38.63Z" fill="#F5F5F5"/>
<path d="M41.6667 19.82C41.6666 20.1506 41.5682 20.4737 41.3841 20.7482C41.1999 21.0227 40.9382 21.2363 40.6323 21.3617C40.3264 21.4871 39.9902 21.5188 39.6663 21.4526C39.3424 21.3864 39.0455 21.2253 38.8133 20.99L33.3333 15.42L27.85 21C27.6171 21.2348 27.3196 21.395 26.9953 21.4602C26.671 21.5255 26.3347 21.4927 26.0291 21.3662C25.7235 21.2397 25.4625 21.0251 25.2792 20.7497C25.0959 20.4744 24.9988 20.1507 25 19.82V1.66663H41.6667V19.82Z" fill="#F5F5F5"/>
<path d="M41.6667 19.82C41.6666 20.1506 41.5682 20.4737 41.3841 20.7482C41.1999 21.0227 40.9382 21.2363 40.6323 21.3617C40.3264 21.4871 39.9902 21.5188 39.6663 21.4526C39.3424 21.3864 39.0455 21.2253 38.8133 20.99L33.3333 15.42L27.85 21C27.6171 21.2348 27.3196 21.395 26.9953 21.4602C26.671 21.5255 26.3347 21.4927 26.0291 21.3662C25.7235 21.2397 25.4625 21.0251 25.2792 20.7497C25.0959 20.4744 24.9988 20.1507 25 19.82V1.66663H41.6667V19.82Z" stroke="#07153A" stroke-width="2" stroke-linecap="round" stroke-linejoin="round"/>
<path d="M75 53.3333V54.1C61.8627 50.8666 48.1373 50.8666 35 54.1V53.3333L37.9333 38.6333C38.0502 38.0367 38.3301 37.4841 38.742 37.0369C39.1539 36.5897 39.6816 36.2654 40.2667 36.1L54.0333 31.9666C54.6623 31.7667 55.3377 31.7667 55.9667 31.9666L69.7667 36.1C70.3422 36.2769 70.8594 36.6055 71.2641 37.0512C71.6688 37.497 71.946 38.0435 72.0667 38.6333L75 53.3333Z" stroke="#07153A" stroke-width="2" stroke-linecap="round" stroke-linejoin="round"/>
<path d="M24.9995 58.3333H4.99947C4.11542 58.3333 3.26757 57.9821 2.64245 57.357C2.01733 56.7319 1.66614 55.884 1.66614 55V4.99996C1.66614 4.1159 2.01733 3.26806 2.64245 2.64294C3.26757 2.01782 4.11542 1.66663 4.99947 1.66663H58.3328C59.2169 1.66663 60.0647 2.01782 60.6898 2.64294C61.315 3.26806 61.6661 4.1159 61.6661 4.99996V23.8933" stroke="#07153A" stroke-width="2" stroke-linecap="round" stroke-linejoin="round"/>
<path d="M55 38.13C54.3408 38.13 53.6963 38.3255 53.1481 38.6918C52.6 39.058 52.1727 39.5786 51.9204 40.1877C51.6681 40.7968 51.6021 41.467 51.7307 42.1136C51.8594 42.7603 52.1768 43.3542 52.643 43.8204C53.1092 44.2865 53.7031 44.604 54.3497 44.7326C54.9963 44.8613 55.6665 44.7952 56.2756 44.5429C56.8847 44.2907 57.4053 43.8634 57.7716 43.3152C58.1379 42.7671 58.3334 42.1226 58.3334 41.4633C58.3334 40.5793 57.9822 39.7314 57.3571 39.1063C56.7319 38.4812 55.8841 38.13 55 38.13Z" fill="#F5F5F5"/>
<path d="M75 54.0967V58.3333C75 63.6377 72.8929 68.7247 69.1421 72.4755C65.3914 76.2262 60.3043 78.3333 55 78.3333C49.6957 78.3333 44.6086 76.2262 40.8579 72.4755C37.1071 68.7247 35 63.6377 35 58.3333V54.1C48.137 50.8656 61.8624 50.8644 75 54.0967Z" fill="#F5F5F5"/>
<path d="M60 66.6666C58.5575 67.7485 56.8031 68.3333 55 68.3333C53.1969 68.3333 51.4425 67.7485 50 66.6666" stroke="#07153A" stroke-width="2" stroke-linecap="round" stroke-linejoin="round"/>
<path d="M61.6666 57.5032C61.8314 57.5032 61.9925 57.5521 62.1296 57.6436C62.2666 57.7352 62.3734 57.8653 62.4365 58.0176C62.4996 58.1699 62.5161 58.3374 62.4839 58.4991C62.4518 58.6607 62.3724 58.8092 62.2558 58.9258C62.1393 59.0423 61.9908 59.1217 61.8292 59.1538C61.6675 59.186 61.5 59.1695 61.3477 59.1064C61.1954 59.0433 61.0653 58.9365 60.9737 58.7995C60.8821 58.6624 60.8333 58.5013 60.8333 58.3365C60.8333 58.1155 60.921 57.9035 61.0773 57.7473C61.2336 57.591 61.4456 57.5032 61.6666 57.5032Z" stroke="#07153A" stroke-width="2" stroke-linecap="round" stroke-linejoin="round" stroke-dasharray="4 8 12 16"/>
<path d="M48.3333 57.5033C48.4983 57.5033 48.6595 57.5523 48.7967 57.644C48.9338 57.7357 49.0406 57.866 49.1035 58.0185C49.1665 58.171 49.1828 58.3387 49.1504 58.5004C49.118 58.6622 49.0383 58.8107 48.9214 58.9271C48.8045 59.0435 48.6557 59.1226 48.4939 59.1544C48.332 59.1861 48.1643 59.1692 48.0121 59.1056C47.8599 59.042 47.73 58.9347 47.6388 58.7972C47.5477 58.6597 47.4993 58.4983 47.5 58.3333C47.5009 58.1129 47.5891 57.9018 47.7453 57.7462C47.9014 57.5906 48.1129 57.5033 48.3333 57.5033" stroke="#07153A" stroke-width="2" stroke-linecap="round" stroke-linejoin="round"/>
<path d="M78.3333 55C77.2333 54.6666 76.1333 54.3666 75 54.1" stroke="#07153A" stroke-width="2" stroke-linecap="round" stroke-linejoin="round"/>
<path d="M35 54.0967C33.8667 54.3633 32.7667 54.6634 31.6667 54.9967" stroke="#07153A" stroke-width="2" stroke-linecap="round" stroke-linejoin="round"/>
<path d="M55 38.13C54.3408 38.13 53.6963 38.3255 53.1481 38.6918C52.6 39.058 52.1727 39.5786 51.9204 40.1877C51.6681 40.7968 51.6021 41.467 51.7307 42.1136C51.8594 42.7603 52.1768 43.3542 52.643 43.8204C53.1092 44.2865 53.7031 44.604 54.3497 44.7326C54.9963 44.8613 55.6665 44.7952 56.2756 44.5429C56.8847 44.2907 57.4053 43.8634 57.7716 43.3152C58.1379 42.7671 58.3334 42.1226 58.3334 41.4633C58.3334 40.5793 57.9822 39.7314 57.3571 39.1063C56.7319 38.4812 55.8841 38.13 55 38.13Z" stroke="#07153A" stroke-width="2" stroke-linecap="round" stroke-linejoin="round"/>
<path d="M75 54.0967V58.3333C75 63.6377 72.8929 68.7247 69.1421 72.4755C65.3914 76.2262 60.3043 78.3333 55 78.3333C49.6957 78.3333 44.6086 76.2262 40.8579 72.4755C37.1071 68.7247 35 63.6377 35 58.3333V54.1C48.137 50.8656 61.8624 50.8644 75 54.0967V54.0967Z" stroke="#07153A" stroke-width="2" stroke-linecap="round" stroke-linejoin="round"/>
</svg>
