<svg width="80" height="80" viewBox="0 0 80 80" fill="none" xmlns="http://www.w3.org/2000/svg">
<path d="M34.9967 68.3333C53.4062 68.3333 68.33 53.4095 68.33 35C68.33 16.5905 53.4062 1.66663 34.9967 1.66663C16.5872 1.66663 1.66333 16.5905 1.66333 35C1.66333 53.4095 16.5872 68.3333 34.9967 68.3333Z" fill="#F5F5F5"/>
<path d="M35 53.3333C27.4669 53.3284 20.1576 50.7719 14.2635 46.0806C8.36948 41.3894 4.23828 34.84 2.54333 27.5C1.39649 32.3916 1.37026 37.4792 2.46661 42.3824C3.56296 47.2856 5.75351 51.8775 8.8745 55.8148C11.9955 59.7522 15.9662 62.933 20.4897 65.1196C25.0131 67.3063 29.9724 68.442 34.9967 68.442C40.0209 68.442 44.9802 67.3063 49.5037 65.1196C54.0272 62.933 57.9978 59.7522 61.1188 55.8148C64.2398 51.8775 66.4304 47.2856 67.5267 42.3824C68.6231 37.4792 68.5968 32.3916 67.45 27.5C65.7553 34.8388 61.6251 41.3874 55.7324 46.0785C49.8397 50.7697 42.532 53.3269 35 53.3333V53.3333Z" fill="#F5F5F5"/>
<path d="M20.2734 46.0334C19.1441 42.4579 18.4995 38.747 18.3567 35.0001C18.2071 28.808 19.3566 22.6534 21.7312 16.9328C24.1058 11.2122 27.6527 6.05264 32.1434 1.78674" stroke="#07153A" stroke-width="2" stroke-linecap="round" stroke-linejoin="round"/>
<path d="M6.12 51.6666H17.94" stroke="#07153A" stroke-width="2" stroke-linecap="round" stroke-linejoin="round"/>
<path d="M6.12 18.3333H35" stroke="#07153A" stroke-width="2" stroke-linecap="round" stroke-linejoin="round"/>
<path d="M1.66669 35H35" stroke="#07153A" stroke-width="2" stroke-linecap="round" stroke-linejoin="round"/>
<path d="M51.63 35.0001C51.7796 28.808 50.6301 22.6534 48.2555 16.9328C45.8809 11.2122 42.334 6.05264 37.8433 1.78674" stroke="#07153A" stroke-width="2" stroke-linecap="round" stroke-linejoin="round"/>
<path d="M63.8667 18.3333H35" stroke="#07153A" stroke-width="2" stroke-linecap="round" stroke-linejoin="round"/>
<path d="M68.3333 35H35" stroke="#07153A" stroke-width="2" stroke-linecap="round" stroke-linejoin="round"/>
<path d="M19.18 64.3499C13.994 61.5536 9.64173 57.4327 6.56668 52.4069C3.49163 47.3811 1.80365 41.63 1.67468 35.7395C1.5457 29.849 2.98035 24.0296 5.83248 18.874C8.68461 13.7184 12.8523 9.41095 17.911 6.39034C22.9697 3.36973 28.7387 1.74394 34.6302 1.67857C40.5217 1.6132 46.3254 3.11059 51.4498 6.01821C56.5743 8.92583 60.8366 13.1398 63.8024 18.2308C66.7682 23.3218 68.3316 29.108 68.3334 34.9999" stroke="#07153A" stroke-width="2" stroke-linecap="round" stroke-linejoin="round"/>
<path d="M31.9667 71.6667C31.5044 71.7085 31.0385 71.6532 30.5988 71.5045C30.1591 71.3558 29.7552 71.1169 29.4132 70.8031C29.0712 70.4893 28.7984 70.1076 28.6125 69.6823C28.4265 69.257 28.3315 68.7975 28.3333 68.3334V48.3333C28.3333 47.4493 28.6845 46.6014 29.3097 45.9763C29.9348 45.3512 30.7826 45 31.6667 45H58.3333C59.2174 45 60.0652 45.3512 60.6904 45.9763C61.3155 46.6014 61.6667 47.4493 61.6667 48.3333V71.6667" fill="#F5F5F5"/>
<path d="M58.3333 45H31.6666C30.7826 45 29.9347 45.3512 29.3096 45.9763C28.6845 46.6014 28.3333 47.4493 28.3333 48.3333V56.6667C28.3333 55.7826 28.6845 54.9348 29.3096 54.3097C29.9347 53.6845 30.7826 53.3333 31.6666 53.3333H58.3333C59.2174 53.3333 60.0652 53.6845 60.6904 54.3097C61.3155 54.9348 61.6667 55.7826 61.6667 56.6667V48.3333C61.6667 47.4493 61.3155 46.6014 60.6904 45.9763C60.0652 45.3512 59.2174 45 58.3333 45Z" fill="#F5F5F5"/>
<path d="M31.9667 71.6667C31.5044 71.7085 31.0385 71.6532 30.5988 71.5045C30.1591 71.3558 29.7552 71.1169 29.4132 70.8031C29.0712 70.4893 28.7984 70.1076 28.6125 69.6823C28.4265 69.257 28.3315 68.7975 28.3333 68.3334V48.3333C28.3333 47.4493 28.6845 46.6014 29.3097 45.9763C29.9348 45.3512 30.7826 45 31.6667 45H58.3333C59.2174 45 60.0652 45.3512 60.6904 45.9763C61.3155 46.6014 61.6667 47.4493 61.6667 48.3333V71.6667" stroke="#07153A" stroke-width="2" stroke-linecap="round" stroke-linejoin="round"/>
<path d="M78.3334 61.6667V68.3334C78.3334 69.2174 77.9822 70.0653 77.357 70.6904C76.7319 71.3155 75.8841 71.6667 75 71.6667H66.3667C66.0228 70.6941 65.3866 69.8517 64.5451 69.2549C63.7037 68.6582 62.6983 68.3363 61.6667 68.3334V50H68.3334V58.3333C68.3334 59.2174 68.6845 60.0653 69.3097 60.6904C69.9348 61.3155 70.7826 61.6667 71.6667 61.6667H78.3334Z" fill="#F5F5F5"/>
<path d="M78.3333 60V61.6667H71.6667C70.7826 61.6667 69.9348 61.3155 69.3097 60.6904C68.6846 60.0652 68.3334 59.2174 68.3334 58.3333V50C70.9831 50.0079 73.522 51.064 75.3957 52.9377C77.2693 54.8113 78.3254 57.3503 78.3333 60Z" fill="#F5F5F5"/>
<path d="M66.6667 73.3333C66.6789 74.599 66.2153 75.8232 65.3677 76.7633C64.5202 77.7035 63.3504 78.291 62.0902 78.4097C60.83 78.5283 59.5712 78.1694 58.563 77.4039C57.5549 76.6384 56.871 75.5223 56.6468 74.2765C56.4225 73.0308 56.6743 71.7462 57.3522 70.6773C58.0302 69.6083 59.0848 68.8329 60.3073 68.5047C61.5298 68.1764 62.831 68.3192 63.9532 68.9048C65.0754 69.4904 65.9367 70.4761 66.3667 71.6666C66.5685 72.1989 66.6702 72.764 66.6667 73.3333Z" fill="#F5F5F5"/>
<path d="M36.6667 78.3332C37.6556 78.3332 38.6223 78.04 39.4445 77.4906C40.2668 76.9412 40.9076 76.1603 41.2861 75.2467C41.6645 74.333 41.7635 73.3277 41.5706 72.3578C41.3777 71.3879 40.9015 70.497 40.2022 69.7977C39.503 69.0985 38.612 68.6223 37.6421 68.4293C36.6722 68.2364 35.6669 68.3354 34.7533 68.7139C33.8396 69.0923 33.0587 69.7332 32.5093 70.5554C31.9599 71.3776 31.6667 72.3443 31.6667 73.3332C31.6667 74.6593 32.1935 75.9311 33.1312 76.8688C34.0688 77.8064 35.3406 78.3332 36.6667 78.3332Z" fill="#F5F5F5"/>
<path d="M56.9434 71.6666H41.3767" stroke="#07153A" stroke-width="2" stroke-linecap="round" stroke-linejoin="round"/>
<path d="M35 1.66663V35" stroke="#07153A" stroke-width="2" stroke-linecap="round" stroke-linejoin="round"/>
<path d="M78.3334 61.6667V68.3334C78.3334 69.2174 77.9822 70.0653 77.357 70.6904C76.7319 71.3155 75.8841 71.6667 75 71.6667H66.3667C66.0228 70.6941 65.3866 69.8517 64.5451 69.2549C63.7037 68.6582 62.6983 68.3363 61.6667 68.3334V50H68.3334V58.3333C68.3334 59.2174 68.6845 60.0653 69.3097 60.6904C69.9348 61.3155 70.7826 61.6667 71.6667 61.6667H78.3334Z" stroke="#07153A" stroke-width="2" stroke-linecap="round" stroke-linejoin="round"/>
<path d="M78.3333 60V61.6667H71.6667C70.7826 61.6667 69.9348 61.3155 69.3097 60.6904C68.6846 60.0652 68.3334 59.2174 68.3334 58.3333V50C70.9831 50.0079 73.522 51.064 75.3957 52.9377C77.2693 54.8113 78.3254 57.3503 78.3333 60Z" stroke="#07153A" stroke-width="2" stroke-linecap="round" stroke-linejoin="round"/>
<path d="M66.6667 73.3333C66.6789 74.599 66.2153 75.8232 65.3677 76.7633C64.5202 77.7035 63.3504 78.291 62.0902 78.4097C60.83 78.5283 59.5712 78.1694 58.563 77.4039C57.5549 76.6384 56.871 75.5223 56.6468 74.2765C56.4225 73.0308 56.6743 71.7462 57.3522 70.6773C58.0302 69.6083 59.0848 68.8329 60.3073 68.5047C61.5298 68.1764 62.831 68.3192 63.9532 68.9048C65.0754 69.4904 65.9367 70.4761 66.3667 71.6666C66.5685 72.1989 66.6702 72.764 66.6667 73.3333Z" stroke="#07153A" stroke-width="2" stroke-linecap="round" stroke-linejoin="round"/>
<path d="M36.6667 78.3332C37.6556 78.3332 38.6223 78.04 39.4445 77.4906C40.2668 76.9412 40.9076 76.1603 41.2861 75.2467C41.6645 74.333 41.7635 73.3277 41.5706 72.3578C41.3777 71.3879 40.9015 70.497 40.2022 69.7977C39.503 69.0985 38.612 68.6223 37.6421 68.4293C36.6722 68.2364 35.6669 68.3354 34.7533 68.7139C33.8396 69.0923 33.0587 69.7332 32.5093 70.5554C31.9599 71.3776 31.6667 72.3443 31.6667 73.3332C31.6667 74.6593 32.1935 75.9311 33.1312 76.8688C34.0688 77.8064 35.3406 78.3332 36.6667 78.3332Z" stroke="#07153A" stroke-width="2" stroke-linecap="round" stroke-linejoin="round"/>
</svg>
