<svg width="80" height="80" viewBox="0 0 80 80" fill="none" xmlns="http://www.w3.org/2000/svg">
<path d="M20.8333 61.6667H11.2767C10.4644 61.6664 9.68009 61.3696 9.0712 60.8319C8.46232 60.2942 8.07073 59.5527 7.97 58.7467L5 35H75L72.03 58.7467C71.9293 59.5527 71.5377 60.2942 70.9288 60.8319C70.3199 61.3696 69.5356 61.6664 68.7233 61.6667H57.5" fill="#F5F5F5"/>
<path d="M20.8333 61.6667H11.2767C10.4644 61.6664 9.68009 61.3696 9.0712 60.8319C8.46232 60.2942 8.07073 59.5527 7.97 58.7467L5 35H75L72.03 58.7467C71.9293 59.5527 71.5377 60.2942 70.9288 60.8319C70.3199 61.3696 69.5356 61.6664 68.7233 61.6667H57.5" stroke="#07153A" stroke-width="2" stroke-linecap="round" stroke-linejoin="round"/>
<path d="M66.0767 18.3333C66.7427 18.3337 67.3934 18.5336 67.9448 18.9073C68.4961 19.2811 68.9229 19.8114 69.17 20.4299L75 34.9999H5L10.83 20.4299C11.0771 19.8114 11.5039 19.2811 12.0552 18.9073C12.6066 18.5336 13.2573 18.3337 13.9233 18.3333H66.0767Z" fill="#F5F5F5"/>
<path d="M71.6667 26.6666L69.17 20.4299C68.9229 19.8114 68.4961 19.2811 67.9448 18.9073C67.3934 18.5336 66.7427 18.3337 66.0767 18.3333H13.9233C13.2573 18.3337 12.6066 18.5336 12.0552 18.9073C11.5039 19.2811 11.0771 19.8114 10.83 20.4299L8.33334 26.6666H71.6667Z" fill="#F5F5F5"/>
<path d="M55 18.3333H66.0767C66.7427 18.3337 67.3934 18.5336 67.9448 18.9073C68.4961 19.2811 68.9229 19.8114 69.17 20.4299L75 34.9999H5L10.83 20.4299C11.0771 19.8114 11.5039 19.2811 12.0552 18.9073C12.6066 18.5336 13.2573 18.3337 13.9233 18.3333H25" stroke="#07153A" stroke-width="2" stroke-linecap="round" stroke-linejoin="round"/>
<path d="M21.6667 25H58.3333" stroke="#07153A" stroke-width="2" stroke-linecap="round" stroke-linejoin="round"/>
<path d="M55 25H25V1.66663H48.3333L55 8.33329V25Z" fill="#F5F5F5"/>
<path d="M55 18.3333H25V24.9999H55V18.3333Z" fill="#F5F5F5"/>
<path d="M55 25H25V1.66663H48.3333L55 8.33329V25Z" stroke="#07153A" stroke-width="2" stroke-linecap="round" stroke-linejoin="round"/>
<path d="M23.3333 51.6666H55L61.6667 78.3333H16.6667L23.3333 51.6666Z" fill="#F5F5F5"/>
<path d="M56.6667 58.3333L55 51.6666H23.3333L21.6667 58.3333H56.6667Z" fill="#F5F5F5"/>
<path d="M23.3333 51.6666H55L61.6667 78.3333H16.6667L23.3333 51.6666Z" stroke="#07153A" stroke-width="2" stroke-linecap="round" stroke-linejoin="round"/>
<path d="M65 42.5C65.1648 42.5 65.3259 42.5489 65.463 42.6404C65.6 42.732 65.7068 42.8622 65.7699 43.0144C65.833 43.1667 65.8495 43.3343 65.8173 43.4959C65.7852 43.6576 65.7058 43.806 65.5893 43.9226C65.4727 44.0391 65.3242 44.1185 65.1626 44.1507C65.0009 44.1828 64.8334 44.1663 64.6811 44.1032C64.5288 44.0402 64.3987 43.9333 64.3071 43.7963C64.2155 43.6593 64.1667 43.4981 64.1667 43.3333C64.1667 43.1123 64.2545 42.9004 64.4107 42.7441C64.567 42.5878 64.779 42.5 65 42.5Z" stroke="#07153A" stroke-width="2" stroke-linecap="round" stroke-linejoin="round" stroke-dasharray="4 8 12 16"/>
<path d="M65 50.8333C65.1648 50.8333 65.3259 50.8821 65.463 50.9737C65.6 51.0653 65.7068 51.1954 65.7699 51.3477C65.833 51.5 65.8495 51.6675 65.8173 51.8292C65.7852 51.9908 65.7058 52.1393 65.5893 52.2558C65.4727 52.3724 65.3242 52.4517 65.1626 52.4839C65.0009 52.5161 64.8334 52.4996 64.6811 52.4365C64.5288 52.3734 64.3987 52.2666 64.3071 52.1296C64.2155 51.9925 64.1667 51.8314 64.1667 51.6666C64.1667 51.4456 64.2545 51.2336 64.4107 51.0773C64.567 50.921 64.779 50.8333 65 50.8333Z" stroke="#07153A" stroke-width="2" stroke-linecap="round" stroke-linejoin="round" stroke-dasharray="4 8 12 16"/>
<path d="M38.3333 58.3333H46.6666" stroke="#07153A" stroke-width="2" stroke-linecap="round" stroke-linejoin="round"/>
<path d="M28.3333 65H48.3333" stroke="#07153A" stroke-width="2" stroke-linecap="round" stroke-linejoin="round"/>
<path d="M25 71.6666H50" stroke="#07153A" stroke-width="2" stroke-linecap="round" stroke-linejoin="round"/>
</svg>
